<?xml version="1.0" standalone="no"?>
<!DOCTYPE svg PUBLIC "-//W3C//DTD SVG 20010904//EN"
 "http://www.w3.org/TR/2001/REC-SVG-20010904/DTD/svg10.dtd">
<svg version="1.0" xmlns="http://www.w3.org/2000/svg"
 width="225.000000pt" height="225.000000pt" viewBox="0 0 225.000000 225.000000"
 preserveAspectRatio="xMidYMid meet">
<metadata>
Created by potrace 1.14, written by Peter Selinger 2001-2017
</metadata>
<g transform="translate(0.000000,225.000000) scale(0.100000,-0.100000)"
fill="#000000" stroke="none">
<path d="M1108 1915 c-5 -5 -63 -12 -138 -17 -8 0 -21 -5 -27 -11 -7 -5 -13
-6 -13 -2 0 4 -7 2 -15 -5 -8 -7 -15 -10 -15 -6 0 4 -15 -1 -32 -11 -18 -9
-35 -17 -38 -18 -16 -2 -70 -31 -70 -37 0 -5 -7 -8 -16 -8 -21 0 -214 -194
-214 -215 0 -8 -4 -15 -9 -15 -8 0 -24 -37 -22 -52 1 -5 -3 -8 -8 -8 -8 0 -29
-48 -37 -82 -1 -5 -3 -10 -4 -13 -1 -3 -3 -8 -5 -12 -1 -5 -5 -16 -9 -25 -4
-9 -5 -21 -2 -27 4 -5 2 -12 -2 -15 -5 -3 -8 -19 -7 -36 2 -30 -3 -34 -57 -46
-5 -1 -9 -2 -10 -3 -2 -2 -14 -5 -28 -7 -13 -2 -27 -8 -30 -12 -3 -4 -9 -7
-15 -7 -20 -1 -85 -29 -85 -38 0 -4 -4 -6 -9 -3 -5 3 -14 -1 -21 -9 -7 -8 -16
-12 -21 -9 -5 3 -39 -24 -76 -60 l-67 -65 -2 -81 c-1 -62 2 -83 12 -87 8 -3
12 -8 9 -13 -5 -8 93 -96 104 -93 4 1 6 -24 4 -55 -1 -42 4 -69 19 -100 25
-49 116 -135 135 -128 7 3 13 2 13 -3 0 -9 15 -12 68 -11 64 0 72 1 72 10 0 5
7 7 15 4 8 -4 17 1 21 10 3 9 10 14 14 11 8 -5 100 92 100 106 0 4 8 6 18 4 9
-2 17 -4 17 -6 0 -3 33 -7 91 -12 28 -2 56 -7 61 -10 5 -3 30 -5 55 -3 26 1
45 -1 42 -5 -10 -17 41 -106 83 -146 41 -40 55 -47 76 -44 4 0 7 -3 7 -8 0 -6
9 -8 20 -6 11 2 22 0 25 -5 5 -8 39 -6 93 4 30 6 80 41 120 84 30 33 36 45 33
65 0 4 3 7 7 7 4 0 8 10 9 21 3 30 5 31 70 34 32 1 58 3 58 5 0 1 20 3 45 6
25 2 60 5 78 8 17 2 32 0 32 -4 0 -4 23 -31 50 -61 28 -30 50 -50 50 -45 0 5
8 2 18 -7 10 -10 22 -14 25 -10 4 3 7 1 7 -5 0 -6 8 -9 18 -7 10 2 24 0 31 -4
18 -12 115 8 124 25 5 8 12 12 16 10 4 -3 27 15 51 39 24 25 40 45 35 45 -6 0
-3 5 5 10 8 5 15 13 16 17 0 4 4 15 7 23 4 8 5 33 3 55 -3 45 8 75 28 75 7 0
40 26 73 58 l59 58 0 77 c0 42 -4 77 -8 77 -4 0 -7 4 -5 8 3 12 -95 112 -104
106 -5 -3 -9 -1 -9 3 0 12 -56 44 -64 36 -3 -3 -6 -2 -6 4 0 10 -46 28 -62 25
-5 -1 -8 3 -8 8 0 5 -3 9 -7 9 -5 -1 -11 0 -15 1 -5 1 -12 4 -18 5 -5 1 -12 4
-15 5 -3 1 -9 4 -15 5 -5 1 -11 3 -12 5 -5 3 -43 12 -63 13 -16 1 -20 8 -19
32 0 16 -5 44 -11 60 -7 17 -10 36 -8 43 3 6 1 12 -4 12 -4 0 -9 12 -10 26 0
15 -6 30 -13 34 -6 4 -12 11 -12 16 -2 22 -21 64 -30 64 -5 0 -6 5 -3 10 3 6
1 10 -4 10 -6 0 -11 6 -11 14 0 8 -9 21 -20 29 -11 8 -18 16 -15 18 5 6 -117
126 -166 162 -20 15 -39 24 -42 20 -4 -3 -7 -1 -7 6 0 7 -4 9 -10 6 -5 -3 -10
-2 -10 2 0 8 -79 45 -102 49 -5 1 -10 3 -13 4 -3 1 -9 4 -15 5 -5 1 -11 4 -12
5 -4 4 -49 10 -99 14 -25 2 -55 6 -66 10 -11 3 -22 4 -25 1z m77 -132 c48 -2
66 -6 83 -17 7 -4 19 -5 27 -2 7 2 15 0 17 -5 2 -6 10 -11 18 -13 8 -1 25 -8
38 -14 12 -7 22 -10 22 -6 0 3 14 -6 31 -20 17 -14 34 -26 38 -26 11 0 131
-117 126 -122 -3 -3 6 -17 19 -31 14 -15 22 -27 19 -27 -3 0 2 -9 12 -20 10
-11 15 -20 12 -20 -3 0 1 -17 9 -37 9 -20 18 -46 21 -57 8 -38 11 -51 13 -51
1 0 3 -29 5 -65 4 -66 -1 -100 -13 -99 -4 1 -9 0 -12 -1 -3 -1 -14 -3 -25 -5
-11 -2 -31 -6 -45 -10 -14 -3 -36 -8 -50 -10 -14 -2 -45 -7 -70 -11 -25 -4
-55 -7 -67 -7 -13 1 -23 -2 -23 -6 0 -3 -29 -5 -65 -4 -36 1 -65 -2 -65 -6 0
-3 -42 -5 -92 -3 -51 2 -126 4 -165 5 -40 1 -73 5 -73 8 0 3 -12 6 -27 7 -45
3 -158 19 -158 22 0 2 -21 7 -50 12 -11 2 -26 7 -33 12 -7 4 -19 5 -27 2 -8
-3 -15 -1 -15 4 0 6 -3 9 -7 9 -5 -1 -10 0 -13 1 -8 3 -44 11 -55 12 -11 1
-14 68 -4 68 4 0 7 15 7 33 0 17 1 34 2 37 2 5 8 31 13 53 1 6 6 18 10 25 5 6
5 17 2 22 -3 6 -2 10 3 10 10 0 36 58 33 73 0 4 3 7 9 7 5 0 10 6 10 13 0 7
13 26 30 42 16 16 28 30 26 32 -6 6 38 50 45 46 3 -1 17 9 29 22 13 14 29 25
35 25 7 0 20 9 30 20 9 10 20 19 24 19 14 -2 51 14 51 22 0 5 7 6 15 3 8 -4
15 -2 15 2 0 5 10 10 23 10 20 2 62 11 62 14 0 1 24 3 54 5 30 3 56 7 59 10 3
3 8 2 11 -3 3 -4 24 -8 46 -9z m-722 -697 c9 1 17 -2 17 -8 0 -5 4 -7 9 -3 5
3 13 0 16 -6 4 -5 13 -8 21 -5 8 3 14 0 14 -6 0 -6 3 -9 6 -6 3 4 17 0 31 -7
15 -8 30 -12 35 -9 4 3 14 2 21 -3 6 -4 17 -8 22 -9 13 -3 64 -14 95 -21 14
-3 41 -7 60 -8 19 -2 35 -4 35 -6 0 -3 78 -10 150 -13 33 -1 65 -5 70 -8 9 -5
190 -4 190 2 0 1 34 3 75 5 41 1 77 3 80 5 3 1 20 2 37 2 18 0 35 4 39 9 3 5
16 6 30 3 14 -4 24 -2 24 4 0 6 11 9 24 6 14 -2 27 0 31 5 3 6 12 8 20 4 9 -3
22 0 30 7 8 7 15 9 15 6 0 -4 6 -4 13 1 6 4 20 6 30 5 9 -2 17 1 17 5 0 5 8 9
18 10 37 3 53 10 67 30 8 11 12 23 9 26 -3 3 0 15 6 27 10 18 14 20 21 9 5 -8
9 -10 9 -5 0 5 7 3 15 -4 8 -6 19 -9 25 -5 5 3 10 1 10 -4 0 -6 3 -10 8 -9 7
1 30 -6 67 -23 11 -4 26 -10 34 -11 8 -2 23 -10 33 -18 10 -8 20 -13 21 -11 6
11 66 -57 70 -79 5 -24 -29 -88 -45 -86 -4 1 -18 -8 -30 -19 -13 -10 -25 -19
-28 -18 -13 1 -60 -20 -60 -28 0 -4 -7 -6 -15 -3 -8 4 -15 1 -15 -6 0 -6 -5
-8 -10 -5 -6 4 -17 1 -25 -5 -8 -7 -15 -9 -15 -5 0 4 -7 2 -15 -5 -8 -7 -15
-10 -15 -6 0 3 -15 0 -32 -7 -18 -8 -39 -12 -45 -10 -7 3 -13 0 -13 -5 0 -5
-10 -10 -22 -9 -13 0 -36 -3 -53 -7 -16 -4 -46 -9 -65 -12 -44 -6 -75 -12 -75
-14 0 -1 -20 -4 -45 -6 -25 -2 -72 -6 -105 -9 -87 -8 -515 -11 -515 -4 0 4
-23 6 -51 5 -27 -1 -52 1 -55 6 -3 4 -24 7 -47 7 -23 0 -55 3 -72 6 -16 3 -43
8 -60 10 -16 2 -30 4 -30 5 0 2 -9 4 -20 6 -11 1 -31 6 -45 9 -14 4 -34 8 -45
10 -11 2 -20 4 -20 5 0 1 -7 3 -15 5 -8 1 -37 10 -65 20 -27 9 -54 18 -60 19
-5 2 -23 8 -40 15 -16 7 -31 11 -31 9 -1 -2 -11 5 -21 15 -11 9 -23 14 -26 10
-4 -3 -7 -2 -7 4 0 6 -15 20 -32 32 -18 11 -29 21 -25 21 5 0 5 6 0 12 -22 36
10 89 70 115 15 7 27 17 27 23 0 6 5 8 10 5 6 -3 10 -1 10 5 0 6 4 8 10 5 5
-3 24 2 42 12 18 9 37 16 42 15 4 -2 14 2 20 8 7 5 16 7 19 3 4 -3 7 -1 7 5 0
6 7 9 15 6 9 -4 15 -1 15 7 0 8 8 -2 18 -21 10 -21 24 -34 35 -34z m-160 -400
c9 0 17 -4 17 -8 0 -4 3 -7 8 -7 4 1 9 0 12 -1 8 -3 44 -11 60 -14 9 -1 20 -5
25 -8 6 -3 18 -4 28 -3 14 3 15 0 8 -9 -6 -7 -9 -16 -6 -19 3 -4 2 -5 -1 -2
-4 2 -16 -1 -28 -7 -11 -7 -24 -12 -28 -13 -3 0 -10 -3 -13 -7 -4 -4 -16 -3
-26 3 -11 5 -19 7 -19 4 0 -3 -10 1 -23 10 -13 8 -27 12 -31 8 -4 -5 -6 -3 -5
2 2 6 -3 21 -11 35 -21 37 -22 53 -2 44 9 -4 25 -7 35 -8z m1656 -36 c-6 -15
-21 -33 -34 -40 -14 -7 -25 -16 -25 -20 0 -7 -68 -5 -103 2 -10 3 -24 14 -33
26 -9 13 -12 21 -7 20 4 -1 26 2 48 7 22 5 43 9 47 9 3 1 9 4 13 8 4 4 13 4
21 1 8 -3 14 0 14 6 0 6 7 8 15 5 8 -4 15 -2 15 4 0 6 9 8 19 5 16 -4 18 -9
10 -33z m-737 -84 c9 -13 -43 -65 -69 -69 -12 -2 -25 -6 -29 -10 -4 -3 -12 -3
-18 0 -12 8 -32 13 -54 15 -8 1 -19 12 -25 25 -5 13 -14 23 -18 23 -5 0 -6 6
-4 13 6 14 206 18 217 3z"/>
</g>
</svg>
